<mxfile host="Electron" modified="2023-11-09T11:12:05.940Z" agent="Mozilla/5.0 (Windows NT 10.0; Win64; x64) AppleWebKit/537.36 (KHTML, like Gecko) draw.io/22.0.2 Chrome/114.0.5735.289 Electron/25.8.4 Safari/537.36" etag="9G4Ms7h0tSbXbCgHU7Bv" version="22.0.2" type="device">
  <diagram name="Page-1" id="RlUg-aWFN2IR5JAvE7po">
    <mxGraphModel dx="1980" dy="4137" grid="1" gridSize="10" guides="1" tooltips="1" connect="1" arrows="1" fold="1" page="1" pageScale="1" pageWidth="827" pageHeight="1169" math="0" shadow="0">
      <root>
        <mxCell id="0" />
        <mxCell id="1" parent="0" />
        <mxCell id="hFOub7zmcyeWvm3Y3HJa-5" style="edgeStyle=orthogonalEdgeStyle;rounded=0;orthogonalLoop=1;jettySize=auto;html=1;exitX=1;exitY=0.5;exitDx=0;exitDy=0;strokeWidth=2;" edge="1" parent="1" source="hFOub7zmcyeWvm3Y3HJa-2" target="hFOub7zmcyeWvm3Y3HJa-3">
          <mxGeometry relative="1" as="geometry" />
        </mxCell>
        <mxCell id="hFOub7zmcyeWvm3Y3HJa-7" style="edgeStyle=orthogonalEdgeStyle;rounded=0;orthogonalLoop=1;jettySize=auto;html=1;strokeWidth=2;" edge="1" parent="1" source="hFOub7zmcyeWvm3Y3HJa-2" target="hFOub7zmcyeWvm3Y3HJa-6">
          <mxGeometry relative="1" as="geometry" />
        </mxCell>
        <mxCell id="hFOub7zmcyeWvm3Y3HJa-2" value="&lt;font style=&quot;font-size: 18px;&quot;&gt;Nachricht&lt;/font&gt;" style="rounded=0;whiteSpace=wrap;html=1;" vertex="1" parent="1">
          <mxGeometry x="80" y="70" width="120" height="50" as="geometry" />
        </mxCell>
        <mxCell id="hFOub7zmcyeWvm3Y3HJa-3" value="&lt;font style=&quot;font-size: 18px;&quot;&gt;Nachricht&lt;/font&gt;" style="rounded=0;whiteSpace=wrap;html=1;" vertex="1" parent="1">
          <mxGeometry x="280" y="190" width="120" height="50" as="geometry" />
        </mxCell>
        <mxCell id="hFOub7zmcyeWvm3Y3HJa-4" value="&lt;font style=&quot;font-size: 18px;&quot;&gt;Signatur&lt;/font&gt;" style="rounded=0;whiteSpace=wrap;html=1;" vertex="1" parent="1">
          <mxGeometry x="400" y="190" width="100" height="50" as="geometry" />
        </mxCell>
        <mxCell id="hFOub7zmcyeWvm3Y3HJa-9" style="edgeStyle=orthogonalEdgeStyle;rounded=0;orthogonalLoop=1;jettySize=auto;html=1;exitX=0.5;exitY=1;exitDx=0;exitDy=0;entryX=0.5;entryY=0;entryDx=0;entryDy=0;strokeWidth=2;" edge="1" parent="1" source="hFOub7zmcyeWvm3Y3HJa-6" target="hFOub7zmcyeWvm3Y3HJa-8">
          <mxGeometry relative="1" as="geometry" />
        </mxCell>
        <mxCell id="hFOub7zmcyeWvm3Y3HJa-6" value="&lt;font style=&quot;font-size: 25px;&quot;&gt;H&lt;/font&gt;" style="rounded=1;whiteSpace=wrap;html=1;" vertex="1" parent="1">
          <mxGeometry x="115" y="170" width="50" height="50" as="geometry" />
        </mxCell>
        <mxCell id="hFOub7zmcyeWvm3Y3HJa-11" style="edgeStyle=orthogonalEdgeStyle;rounded=0;orthogonalLoop=1;jettySize=auto;html=1;entryX=0.5;entryY=0;entryDx=0;entryDy=0;strokeWidth=2;" edge="1" parent="1" source="hFOub7zmcyeWvm3Y3HJa-8" target="hFOub7zmcyeWvm3Y3HJa-10">
          <mxGeometry relative="1" as="geometry" />
        </mxCell>
        <mxCell id="hFOub7zmcyeWvm3Y3HJa-8" value="&lt;font style=&quot;font-size: 18px;&quot;&gt;Hash-Wert&lt;/font&gt;" style="rounded=0;whiteSpace=wrap;html=1;" vertex="1" parent="1">
          <mxGeometry x="80" y="260" width="120" height="50" as="geometry" />
        </mxCell>
        <mxCell id="hFOub7zmcyeWvm3Y3HJa-15" style="edgeStyle=orthogonalEdgeStyle;rounded=0;orthogonalLoop=1;jettySize=auto;html=1;strokeWidth=2;" edge="1" parent="1" source="hFOub7zmcyeWvm3Y3HJa-10" target="hFOub7zmcyeWvm3Y3HJa-14">
          <mxGeometry relative="1" as="geometry" />
        </mxCell>
        <mxCell id="hFOub7zmcyeWvm3Y3HJa-10" value="&lt;font style=&quot;font-size: 25px;&quot;&gt;V&lt;/font&gt;" style="rounded=1;whiteSpace=wrap;html=1;" vertex="1" parent="1">
          <mxGeometry x="115" y="360" width="50" height="50" as="geometry" />
        </mxCell>
        <mxCell id="hFOub7zmcyeWvm3Y3HJa-13" style="edgeStyle=orthogonalEdgeStyle;rounded=0;orthogonalLoop=1;jettySize=auto;html=1;entryX=0;entryY=0.5;entryDx=0;entryDy=0;strokeWidth=2;endArrow=none;endFill=0;" edge="1" parent="1" source="hFOub7zmcyeWvm3Y3HJa-12" target="hFOub7zmcyeWvm3Y3HJa-10">
          <mxGeometry relative="1" as="geometry" />
        </mxCell>
        <mxCell id="hFOub7zmcyeWvm3Y3HJa-12" value="&lt;font style=&quot;font-size: 18px;&quot;&gt;PS&lt;/font&gt;" style="rounded=0;whiteSpace=wrap;html=1;" vertex="1" parent="1">
          <mxGeometry x="10" y="360" width="50" height="50" as="geometry" />
        </mxCell>
        <mxCell id="hFOub7zmcyeWvm3Y3HJa-16" style="edgeStyle=orthogonalEdgeStyle;rounded=0;orthogonalLoop=1;jettySize=auto;html=1;strokeWidth=2;" edge="1" parent="1" source="hFOub7zmcyeWvm3Y3HJa-14" target="hFOub7zmcyeWvm3Y3HJa-4">
          <mxGeometry relative="1" as="geometry" />
        </mxCell>
        <mxCell id="hFOub7zmcyeWvm3Y3HJa-14" value="&lt;font style=&quot;font-size: 18px;&quot;&gt;Signatur&lt;/font&gt;" style="rounded=0;whiteSpace=wrap;html=1;" vertex="1" parent="1">
          <mxGeometry x="90" y="460" width="100" height="50" as="geometry" />
        </mxCell>
        <mxCell id="hFOub7zmcyeWvm3Y3HJa-17" value="&lt;font style=&quot;font-size: 14px;&quot;&gt;&lt;b style=&quot;&quot;&gt;Sender&lt;/b&gt;&lt;br&gt;&lt;/font&gt;&lt;div style=&quot;font-size: 14px;&quot;&gt;&lt;span style=&quot;background-color: initial;&quot;&gt;&lt;font style=&quot;font-size: 14px;&quot;&gt;Signierung&lt;/font&gt;&lt;/span&gt;&lt;/div&gt;" style="text;html=1;align=left;verticalAlign=middle;resizable=0;points=[];autosize=1;strokeColor=none;fillColor=none;" vertex="1" parent="1">
          <mxGeometry x="10" width="90" height="50" as="geometry" />
        </mxCell>
        <mxCell id="hFOub7zmcyeWvm3Y3HJa-18" value="" style="endArrow=none;dashed=1;html=1;rounded=0;strokeWidth=2;" edge="1" parent="1">
          <mxGeometry width="50" height="50" relative="1" as="geometry">
            <mxPoint x="540" y="530" as="sourcePoint" />
            <mxPoint x="540" as="targetPoint" />
          </mxGeometry>
        </mxCell>
        <mxCell id="hFOub7zmcyeWvm3Y3HJa-32" style="edgeStyle=orthogonalEdgeStyle;rounded=0;orthogonalLoop=1;jettySize=auto;html=1;exitX=0.88;exitY=0.25;exitDx=0;exitDy=0;exitPerimeter=0;entryX=0;entryY=0.5;entryDx=0;entryDy=0;strokeWidth=2;" edge="1" parent="1" source="hFOub7zmcyeWvm3Y3HJa-20" target="hFOub7zmcyeWvm3Y3HJa-26">
          <mxGeometry relative="1" as="geometry" />
        </mxCell>
        <mxCell id="hFOub7zmcyeWvm3Y3HJa-20" value="" style="ellipse;shape=cloud;whiteSpace=wrap;html=1;fillColor=#f5f5f5;strokeColor=#666666;fontColor=#333333;" vertex="1" parent="1">
          <mxGeometry x="550" width="120" height="530" as="geometry" />
        </mxCell>
        <mxCell id="hFOub7zmcyeWvm3Y3HJa-22" value="" style="endArrow=none;dashed=1;html=1;rounded=0;strokeWidth=2;" edge="1" parent="1">
          <mxGeometry width="50" height="50" relative="1" as="geometry">
            <mxPoint x="680" y="530" as="sourcePoint" />
            <mxPoint x="680" as="targetPoint" />
          </mxGeometry>
        </mxCell>
        <mxCell id="hFOub7zmcyeWvm3Y3HJa-23" value="&lt;b&gt;&lt;font style=&quot;font-size: 32px;&quot;&gt;Internet&lt;/font&gt;&lt;/b&gt;" style="text;html=1;align=center;verticalAlign=middle;resizable=0;points=[];autosize=1;strokeColor=none;fillColor=none;rotation=-90;" vertex="1" parent="1">
          <mxGeometry x="540" y="260" width="140" height="50" as="geometry" />
        </mxCell>
        <mxCell id="hFOub7zmcyeWvm3Y3HJa-24" style="edgeStyle=orthogonalEdgeStyle;rounded=0;orthogonalLoop=1;jettySize=auto;html=1;entryX=0.16;entryY=0.55;entryDx=0;entryDy=0;entryPerimeter=0;strokeWidth=2;" edge="1" parent="1" source="hFOub7zmcyeWvm3Y3HJa-4" target="hFOub7zmcyeWvm3Y3HJa-20">
          <mxGeometry relative="1" as="geometry" />
        </mxCell>
        <mxCell id="hFOub7zmcyeWvm3Y3HJa-25" style="edgeStyle=orthogonalEdgeStyle;rounded=0;orthogonalLoop=1;jettySize=auto;html=1;strokeWidth=2;" edge="1" parent="1" source="hFOub7zmcyeWvm3Y3HJa-26" target="hFOub7zmcyeWvm3Y3HJa-28">
          <mxGeometry relative="1" as="geometry" />
        </mxCell>
        <mxCell id="hFOub7zmcyeWvm3Y3HJa-26" value="&lt;font style=&quot;font-size: 18px;&quot;&gt;Nachricht&lt;/font&gt;" style="rounded=0;whiteSpace=wrap;html=1;" vertex="1" parent="1">
          <mxGeometry x="720" y="80" width="210" height="50" as="geometry" />
        </mxCell>
        <mxCell id="hFOub7zmcyeWvm3Y3HJa-27" style="edgeStyle=orthogonalEdgeStyle;rounded=0;orthogonalLoop=1;jettySize=auto;html=1;exitX=0.5;exitY=1;exitDx=0;exitDy=0;entryX=0.5;entryY=0;entryDx=0;entryDy=0;strokeWidth=2;" edge="1" parent="1" source="hFOub7zmcyeWvm3Y3HJa-28" target="hFOub7zmcyeWvm3Y3HJa-30">
          <mxGeometry relative="1" as="geometry" />
        </mxCell>
        <mxCell id="hFOub7zmcyeWvm3Y3HJa-28" value="&lt;font style=&quot;font-size: 25px;&quot;&gt;H&lt;/font&gt;" style="rounded=1;whiteSpace=wrap;html=1;" vertex="1" parent="1">
          <mxGeometry x="800" y="180" width="50" height="50" as="geometry" />
        </mxCell>
        <mxCell id="hFOub7zmcyeWvm3Y3HJa-41" style="edgeStyle=orthogonalEdgeStyle;rounded=0;orthogonalLoop=1;jettySize=auto;html=1;entryX=0;entryY=0.5;entryDx=0;entryDy=0;strokeWidth=2;" edge="1" parent="1" source="hFOub7zmcyeWvm3Y3HJa-30" target="hFOub7zmcyeWvm3Y3HJa-31">
          <mxGeometry relative="1" as="geometry" />
        </mxCell>
        <mxCell id="hFOub7zmcyeWvm3Y3HJa-30" value="&lt;font style=&quot;font-size: 18px;&quot;&gt;Hash-Wert&lt;/font&gt;" style="rounded=0;whiteSpace=wrap;html=1;" vertex="1" parent="1">
          <mxGeometry x="765" y="270" width="120" height="50" as="geometry" />
        </mxCell>
        <mxCell id="hFOub7zmcyeWvm3Y3HJa-31" value="&lt;font style=&quot;font-size: 25px;&quot;&gt;VG&lt;/font&gt;" style="rounded=1;whiteSpace=wrap;html=1;" vertex="1" parent="1">
          <mxGeometry x="883" y="362" width="50" height="50" as="geometry" />
        </mxCell>
        <mxCell id="hFOub7zmcyeWvm3Y3HJa-33" style="edgeStyle=orthogonalEdgeStyle;rounded=0;orthogonalLoop=1;jettySize=auto;html=1;strokeWidth=2;" edge="1" parent="1" source="hFOub7zmcyeWvm3Y3HJa-34" target="hFOub7zmcyeWvm3Y3HJa-36">
          <mxGeometry relative="1" as="geometry" />
        </mxCell>
        <mxCell id="hFOub7zmcyeWvm3Y3HJa-34" value="&lt;font style=&quot;font-size: 18px;&quot;&gt;Nachricht&lt;/font&gt;" style="rounded=0;whiteSpace=wrap;html=1;" vertex="1" parent="1">
          <mxGeometry x="930" y="80" width="120" height="50" as="geometry" />
        </mxCell>
        <mxCell id="hFOub7zmcyeWvm3Y3HJa-35" style="edgeStyle=orthogonalEdgeStyle;rounded=0;orthogonalLoop=1;jettySize=auto;html=1;exitX=0.5;exitY=1;exitDx=0;exitDy=0;entryX=0.5;entryY=0;entryDx=0;entryDy=0;strokeWidth=2;" edge="1" parent="1" source="hFOub7zmcyeWvm3Y3HJa-36" target="hFOub7zmcyeWvm3Y3HJa-37">
          <mxGeometry relative="1" as="geometry" />
        </mxCell>
        <mxCell id="hFOub7zmcyeWvm3Y3HJa-39" style="edgeStyle=orthogonalEdgeStyle;rounded=0;orthogonalLoop=1;jettySize=auto;html=1;exitX=1;exitY=0.5;exitDx=0;exitDy=0;entryX=0;entryY=0.5;entryDx=0;entryDy=0;strokeWidth=2;endArrow=none;endFill=0;" edge="1" parent="1" source="hFOub7zmcyeWvm3Y3HJa-36" target="hFOub7zmcyeWvm3Y3HJa-38">
          <mxGeometry relative="1" as="geometry" />
        </mxCell>
        <mxCell id="hFOub7zmcyeWvm3Y3HJa-36" value="&lt;font style=&quot;font-size: 25px;&quot;&gt;E&lt;/font&gt;" style="rounded=1;whiteSpace=wrap;html=1;" vertex="1" parent="1">
          <mxGeometry x="965" y="180" width="50" height="50" as="geometry" />
        </mxCell>
        <mxCell id="hFOub7zmcyeWvm3Y3HJa-42" style="edgeStyle=orthogonalEdgeStyle;rounded=0;orthogonalLoop=1;jettySize=auto;html=1;entryX=1;entryY=0.5;entryDx=0;entryDy=0;strokeWidth=2;" edge="1" parent="1" source="hFOub7zmcyeWvm3Y3HJa-37" target="hFOub7zmcyeWvm3Y3HJa-31">
          <mxGeometry relative="1" as="geometry" />
        </mxCell>
        <mxCell id="hFOub7zmcyeWvm3Y3HJa-37" value="&lt;font style=&quot;font-size: 18px;&quot;&gt;Hash-Wert&lt;/font&gt;" style="rounded=0;whiteSpace=wrap;html=1;" vertex="1" parent="1">
          <mxGeometry x="930" y="270" width="120" height="50" as="geometry" />
        </mxCell>
        <mxCell id="hFOub7zmcyeWvm3Y3HJa-38" value="&lt;font style=&quot;font-size: 18px;&quot;&gt;ÖS&lt;/font&gt;" style="rounded=0;whiteSpace=wrap;html=1;" vertex="1" parent="1">
          <mxGeometry x="1050" y="180" width="50" height="50" as="geometry" />
        </mxCell>
        <mxCell id="hFOub7zmcyeWvm3Y3HJa-43" value="&lt;font style=&quot;font-size: 14px;&quot;&gt;&lt;b style=&quot;&quot;&gt;Empfänger&lt;/b&gt;&lt;br&gt;&lt;/font&gt;&lt;div style=&quot;font-size: 14px;&quot;&gt;Verifizierung&lt;/div&gt;" style="text;html=1;align=left;verticalAlign=middle;resizable=0;points=[];autosize=1;strokeColor=none;fillColor=none;" vertex="1" parent="1">
          <mxGeometry x="690" width="100" height="50" as="geometry" />
        </mxCell>
      </root>
    </mxGraphModel>
  </diagram>
</mxfile>
